<svg width="56" height="40" viewBox="0 0 56 40" fill="none" xmlns="http://www.w3.org/2000/svg">
<path d="M52.75 0.75H3.25C1.73148 0.75 0.5 1.98148 0.5 3.5V36.5C0.5 38.0185 1.73148 39.25 3.25 39.25H52.75C54.2685 39.25 55.5 38.0185 55.5 36.5V3.5C55.5 1.98148 54.2685 0.75 52.75 0.75ZM15.625 26.1772V27.5625C15.625 27.9423 15.3173 28.25 14.9375 28.25H13.5625C13.1827 28.25 12.875 27.9423 12.875 27.5625V26.1626C11.9048 26.1127 10.9612 25.7741 10.1791 25.1872C9.84398 24.9354 9.8268 24.4335 10.1302 24.1439L11.1399 23.1805C11.378 22.9537 11.732 22.9434 12.0105 23.1178C12.343 23.3258 12.7203 23.4375 13.1122 23.4375H15.5279C16.0865 23.4375 16.542 22.9287 16.542 22.304C16.542 21.7927 16.2317 21.3423 15.7883 21.21L11.9211 20.0498C10.3235 19.5703 9.20719 18.0372 9.20719 16.321C9.20719 14.2138 10.8443 12.502 12.8741 12.4478V11.0625C12.8741 10.6827 13.1818 10.375 13.5616 10.375H14.9366C15.3165 10.375 15.6241 10.6827 15.6241 11.0625V12.4624C16.5944 12.5123 17.538 12.85 18.32 13.4378C18.6552 13.6896 18.6723 14.1915 18.369 14.4811L17.3592 15.4445C17.1212 15.6713 16.7671 15.6816 16.4887 15.5072C16.1561 15.2984 15.7788 15.1875 15.387 15.1875H12.9712C12.4127 15.1875 11.9572 15.6962 11.9572 16.321C11.9572 16.8323 12.2674 17.2827 12.7109 17.415L16.578 18.5752C18.1756 19.0547 19.292 20.5878 19.292 22.304C19.292 24.412 17.6548 26.123 15.625 26.1772ZM36.25 24.8125C36.25 25.1923 35.9423 25.5 35.5625 25.5H25.9375C25.5577 25.5 25.25 25.1923 25.25 24.8125V23.4375C25.25 23.0577 25.5577 22.75 25.9375 22.75H35.5625C35.9423 22.75 36.25 23.0577 36.25 23.4375V24.8125ZM50 24.8125C50 25.1923 49.6923 25.5 49.3125 25.5H42.4375C42.0577 25.5 41.75 25.1923 41.75 24.8125V23.4375C41.75 23.0577 42.0577 22.75 42.4375 22.75H49.3125C49.6923 22.75 50 23.0577 50 23.4375V24.8125ZM50 16.5625C50 16.9423 49.6923 17.25 49.3125 17.25H25.9375C25.5577 17.25 25.25 16.9423 25.25 16.5625V15.1875C25.25 14.8077 25.5577 14.5 25.9375 14.5H49.3125C49.6923 14.5 50 14.8077 50 15.1875V16.5625Z" fill="#D1AE31"/>
</svg>
