<svg width="27" height="17" viewBox="0 0 27 17" fill="none" xmlns="http://www.w3.org/2000/svg">
<g clip-path="url(#clip0_49_477)">
<path d="M25.2396 7.04169H1.76042C0.995272 7.04169 0.375 7.66196 0.375 8.4271V8.57294C0.375 9.33808 0.995272 9.95835 1.76042 9.95835H25.2396C26.0047 9.95835 26.625 9.33808 26.625 8.57294V8.4271C26.625 7.66196 26.0047 7.04169 25.2396 7.04169Z" fill="white"/>
<path d="M25.2396 14.3333H1.76042C0.995272 14.3333 0.375 14.9536 0.375 15.7187V15.8646C0.375 16.6297 0.995272 17.25 1.76042 17.25H25.2396C26.0047 17.25 26.625 16.6297 26.625 15.8646V15.7187C26.625 14.9536 26.0047 14.3333 25.2396 14.3333Z" fill="white"/>
<path d="M25.2396 -0.25H1.76042C0.995272 -0.25 0.375 0.370272 0.375 1.13542V1.28125C0.375 2.04639 0.995272 2.66667 1.76042 2.66667H25.2396C26.0047 2.66667 26.625 2.04639 26.625 1.28125V1.13542C26.625 0.370272 26.0047 -0.25 25.2396 -0.25Z" fill="white"/>
</g>
<defs>
<clipPath id="clip0_49_477">
<rect width="27" height="17" fill="white"/>
</clipPath>
</defs>
</svg>
