<svg width="520" height="200" viewBox="0 0 520 200" fill="none" xmlns="http://www.w3.org/2000/svg">
<g clip-path="url(#clip0_49_31)">
<path d="M80.67 40.05L66.89 33.44L69.24 21.41L74.15 22.37L72.54 30.6L82.84 35.54L80.67 40.05Z" fill="#F9B117"/>
<path d="M80.67 40.05L66.89 33.44L69.24 21.41L74.15 22.37L72.54 30.6L82.84 35.54L80.67 40.05Z" stroke="#141414" stroke-width="2" stroke-miterlimit="10"/>
<path d="M71.7 24.42C75.1407 24.42 77.93 21.6307 77.93 18.19C77.93 14.7493 75.1407 11.96 71.7 11.96C68.2592 11.96 65.47 14.7493 65.47 18.19C65.47 21.6307 68.2592 24.42 71.7 24.42Z" fill="#0E394F"/>
<path d="M71.7 24.42C75.1407 24.42 77.93 21.6307 77.93 18.19C77.93 14.7493 75.1407 11.96 71.7 11.96C68.2592 11.96 65.47 14.7493 65.47 18.19C65.47 21.6307 68.2592 24.42 71.7 24.42Z" stroke="#141414" stroke-width="2" stroke-miterlimit="10"/>
<path d="M64.18 52.6C65.0284 48.8261 66.8569 45.3425 69.481 42.5006C72.1051 39.6588 75.4321 37.559 79.1266 36.413C82.8211 35.267 86.7524 35.1154 90.5242 35.9734C94.2959 36.8314 97.7748 38.6687 100.61 41.3L112.12 52L151.64 88.54L100.23 104.54L48.83 120.54L60.72 67.9L64.18 52.6Z" fill="#FACA3F"/>
<path d="M113.69 53.29L62.79 69.09L63.57 65.64C68.9095 64.6698 74.0541 62.8322 78.8 60.2C87.2959 55.6636 94.1961 48.6307 98.57 40.05C100.011 40.8979 101.353 41.9041 102.57 43.05L113.69 53.29Z" fill="#F99F00"/>
<path d="M360.46 179.64H381.52C384.675 179.648 387.8 179.033 390.717 177.832C393.634 176.631 396.285 174.867 398.52 172.64V172.64C403.021 168.139 409.125 165.611 415.49 165.611C421.855 165.611 427.959 168.139 432.46 172.64L436.96 177.14C439.194 179.367 441.846 181.131 444.763 182.332C447.68 183.533 450.805 184.148 453.96 184.14H486.52" stroke="#141414" stroke-width="2" stroke-miterlimit="10"/>
<path d="M510.68 174.86C505.82 165.55 497.12 158.57 485.89 158.57C479.614 158.579 473.51 160.614 468.484 164.373C463.459 168.132 459.782 173.413 458 179.43C457.724 180.396 457.676 181.413 457.861 182.4C458.046 183.388 458.457 184.319 459.063 185.12C459.669 185.921 460.454 186.57 461.354 187.016C462.254 187.462 463.245 187.693 464.25 187.69H499.96L511.62 186.69" fill="#2C6E9B"/>
<path opacity="0.3" d="M467.11 179.43C466.832 180.395 466.783 181.412 466.966 182.4C467.149 183.387 467.56 184.319 468.165 185.12C468.77 185.921 469.554 186.571 470.454 187.017C471.354 187.463 472.346 187.694 473.35 187.69H464.21C463.205 187.693 462.214 187.462 461.314 187.016C460.414 186.57 459.629 185.921 459.023 185.12C458.417 184.319 458.006 183.388 457.821 182.4C457.636 181.413 457.684 180.396 457.96 179.43C459.744 173.406 463.427 168.12 468.46 164.361C473.494 160.602 479.608 158.57 485.89 158.57C487.424 158.568 488.955 158.688 490.47 158.93C485.039 159.795 479.964 162.18 475.83 165.807C471.696 169.435 468.673 174.157 467.11 179.43Z" fill="#0E3964"/>
<path d="M511.7 183.56C511.742 178.44 510.188 173.433 507.255 169.236C504.321 165.039 500.153 161.86 495.33 160.14C491.621 158.872 487.695 158.365 483.786 158.65C479.877 158.935 476.066 160.006 472.58 161.798C469.095 163.591 466.007 166.068 463.502 169.083C460.996 172.097 459.125 175.586 458 179.34C457.712 180.309 457.655 181.332 457.831 182.327C458.008 183.322 458.415 184.262 459.018 185.073C459.622 185.884 460.407 186.542 461.31 186.996C462.213 187.451 463.209 187.688 464.22 187.69H507.59C508.132 187.69 508.668 187.583 509.169 187.375C509.669 187.168 510.124 186.863 510.507 186.48C510.89 186.096 511.193 185.641 511.399 185.14C511.606 184.639 511.711 184.102 511.71 183.56H511.7Z" stroke="#141414" stroke-width="2" stroke-miterlimit="10"/>
<path d="M69.5649 143.095L86.3464 137.891L96.2279 169.754C96.9193 171.983 96.6967 174.396 95.6093 176.461C94.5219 178.526 92.6586 180.074 90.4295 180.766C88.2003 181.457 85.7878 181.234 83.7227 180.147C81.6576 179.06 80.1091 177.196 79.4178 174.967L69.5363 143.104L69.5649 143.095Z" fill="#FBD766"/>
<path d="M130.701 123.278L147.511 118.064L157.392 149.927C158.084 152.156 157.861 154.569 156.774 156.634C155.686 158.699 153.823 160.248 151.594 160.939C149.365 161.63 146.952 161.408 144.887 160.32C142.822 159.233 141.274 157.37 140.582 155.141L130.701 123.278Z" fill="#FBD766"/>
<path d="M69.5649 143.095L86.3464 137.891L96.2279 169.754C96.9193 171.983 96.6967 174.396 95.6093 176.461C94.5219 178.526 92.6586 180.074 90.4295 180.766C88.2003 181.457 85.7878 181.234 83.7227 180.147C81.6576 179.06 80.1091 177.196 79.4178 174.967L69.5363 143.104L69.5649 143.095Z" stroke="#141414" stroke-width="2" stroke-miterlimit="10"/>
<path d="M130.701 123.278L147.511 118.064L157.392 149.927C158.084 152.156 157.861 154.569 156.774 156.634C155.686 158.699 153.823 160.248 151.594 160.939C149.365 161.63 146.952 161.408 144.887 160.32C142.822 159.233 141.274 157.37 140.582 155.141L130.701 123.278V123.278Z" stroke="#141414" stroke-width="2" stroke-miterlimit="10"/>
<path opacity="0.7" d="M75.85 150.87L79.16 161.55" stroke="white" stroke-width="2.8" stroke-linecap="round" stroke-linejoin="round"/>
<path d="M74.6793 129.079L135.272 110.288L147.417 149.448C148.117 151.706 148.366 154.079 148.149 156.433C147.931 158.787 147.253 161.075 146.152 163.166C145.05 165.258 143.548 167.112 141.73 168.623C139.912 170.134 137.814 171.272 135.556 171.972L109.291 180.118C104.731 181.532 99.7962 181.077 95.5721 178.852C91.3481 176.628 88.1806 172.817 86.7665 168.257L74.622 129.097L74.6793 129.079Z" fill="#FACA3F"/>
<path d="M140.59 127.497L79.9966 146.288L82.3011 153.719L142.894 134.928L140.59 127.497Z" fill="#F7B000"/>
<path d="M74.6793 129.079L135.272 110.288L147.417 149.448C148.117 151.706 148.366 154.079 148.149 156.433C147.931 158.787 147.253 161.075 146.152 163.166C145.05 165.258 143.548 167.112 141.73 168.623C139.912 170.134 137.814 171.272 135.556 171.972L109.291 180.118C104.731 181.532 99.7962 181.077 95.5721 178.852C91.3481 176.628 88.1806 172.817 86.7665 168.257L74.622 129.097L74.6793 129.079Z" stroke="#141414" stroke-width="2" stroke-miterlimit="10"/>
<path d="M64.18 52.6C65.0284 48.8261 66.8569 45.3425 69.481 42.5006C72.1051 39.6588 75.4321 37.559 79.1266 36.413C82.8211 35.267 86.7524 35.1154 90.5242 35.9734C94.2959 36.8314 97.7748 38.6687 100.61 41.3L112.12 52L150.64 88.54L100.23 104.54L49.83 120.54L60.72 67.9L64.18 52.6Z" stroke="#141414" stroke-width="2" stroke-miterlimit="10"/>
<path d="M125.907 47.2412L48.0514 71.5712C41.1271 73.735 37.2679 81.1025 39.4318 88.0268L55.9078 140.75C58.0716 147.674 65.4391 151.533 72.3634 149.37L150.219 125.04C157.144 122.876 161.003 115.508 158.839 108.584L142.363 55.8608C140.199 48.9365 132.832 45.0773 125.907 47.2412Z" fill="#F9B117"/>
<path opacity="0.5" d="M156.39 104.53L157.63 108.53C158.655 111.837 158.326 115.416 156.713 118.48C155.1 121.545 152.337 123.843 149.03 124.87L71.57 148.87C68.2614 149.896 64.6809 149.566 61.6152 147.954C58.5495 146.341 56.2493 143.577 55.22 140.27L53.98 136.27C55.0071 139.577 57.3054 142.34 60.3695 143.953C63.4336 145.566 67.0127 145.895 70.32 144.87L147.79 120.87C149.432 120.368 150.958 119.546 152.28 118.452C153.603 117.357 154.695 116.011 155.495 114.492C156.295 112.973 156.785 111.31 156.939 109.601C157.093 107.891 156.906 106.167 156.39 104.53Z" fill="#E59303"/>
<path d="M126.13 54.4952L51.9988 77.6612C47.8421 78.9602 45.5254 83.3829 46.8244 87.5396L62.2564 136.922C63.5554 141.079 67.9781 143.395 72.1348 142.096L146.266 118.93C150.423 117.631 152.739 113.209 151.44 109.052L136.008 59.6696C134.709 55.5129 130.287 53.1962 126.13 54.4952Z" fill="#0E394F"/>
<path d="M148.09 102L150.28 109C150.585 109.984 150.693 111.018 150.598 112.043C150.503 113.068 150.207 114.065 149.727 114.976C149.247 115.887 148.592 116.694 147.8 117.352C147.008 118.01 146.094 118.505 145.11 118.81L71.36 141.68C69.3722 142.296 67.2212 142.097 65.3798 141.128C63.5383 140.158 62.1572 138.497 61.54 136.51L59.36 129.51C59.9771 131.495 61.3572 133.153 63.1967 134.121C65.0363 135.089 67.1848 135.286 69.17 134.67L142.93 111.79C144.912 111.175 146.568 109.798 147.536 107.963C148.503 106.127 148.703 103.982 148.09 102Z" fill="#062538"/>
<path d="M88.0724 93.5938C87.5702 91.9744 85.8502 91.0687 84.2308 91.571C82.6114 92.0732 81.7057 93.7931 82.2079 95.4125L85.9668 107.533C86.4691 109.152 88.189 110.058 89.8084 109.556C91.4278 109.054 92.3335 107.334 91.8313 105.714L88.0724 93.5938Z" fill="#4CF58C"/>
<path d="M109.969 86.8045C109.467 85.1851 107.747 84.2794 106.127 84.7817C104.508 85.2839 103.602 87.0038 104.104 88.6232L107.863 100.744C108.365 102.363 110.085 103.269 111.705 102.767C113.324 102.264 114.23 100.544 113.728 98.925L109.969 86.8045Z" fill="#4CF58C"/>
<path d="M65.0803 84.9838C66.4412 84.5615 67.202 83.116 66.7797 81.7551C66.3574 80.3942 64.9119 79.6334 63.551 80.0557L53.7042 83.1113C52.3433 83.5336 51.5825 84.9792 52.0048 86.34C52.4271 87.7009 53.8726 88.4618 55.2335 88.0395L65.0803 84.9838Z" fill="#185472"/>
<path d="M71.03 83.01C72.3886 83.01 73.49 81.9086 73.49 80.55C73.49 79.1914 72.3886 78.09 71.03 78.09C69.6714 78.09 68.57 79.1914 68.57 80.55C68.57 81.9086 69.6714 83.01 71.03 83.01Z" fill="#185472"/>
<path d="M72.2935 65.5595L56.534 70.447C55.5792 70.7431 55.0445 71.755 55.3398 72.7071C55.6351 73.6592 56.6485 74.1911 57.6033 73.895L73.3628 69.0075C74.3176 68.7114 74.8522 67.6995 74.5569 66.7474C74.2616 65.7953 73.2483 65.2634 72.2935 65.5595Z" fill="#FFCB6E"/>
<path d="M77.3 67.68C78.3383 67.68 79.18 66.8383 79.18 65.8C79.18 64.7617 78.3383 63.92 77.3 63.92C76.2617 63.92 75.42 64.7617 75.42 65.8C75.42 66.8383 76.2617 67.68 77.3 67.68Z" fill="#FFCB6E"/>
<path d="M86.4626 45.8223L77.7328 48.5297C77.1314 48.7162 76.7951 49.3548 76.9816 49.9562C77.1681 50.5575 77.8068 50.8939 78.4081 50.7074L87.1379 48C87.7393 47.8135 88.0756 47.1748 87.8891 46.5735C87.7026 45.9721 87.0639 45.6358 86.4626 45.8223Z" fill="#F7B40D"/>
<path d="M85.3777 42.3318L76.6479 45.0392C76.0466 45.2257 75.7103 45.8643 75.8968 46.4657C76.0833 47.067 76.7219 47.4033 77.3233 47.2168L86.0531 44.5095C86.6545 44.323 86.9908 43.6843 86.8043 43.083C86.6178 42.4816 85.9791 42.1453 85.3777 42.3318Z" fill="#F7B40D"/>
<path d="M122.731 154.63L109.388 158.768C108.465 159.054 107.948 160.032 108.233 160.953C108.519 161.873 109.498 162.388 110.421 162.101L123.765 157.963C124.688 157.677 125.205 156.699 124.919 155.778C124.634 154.858 123.654 154.344 122.731 154.63Z" fill="#F7B40D"/>
<path d="M122.251 149.554L108.84 153.745C107.912 154.035 107.394 155.02 107.683 155.945C107.973 156.87 108.959 157.385 109.887 157.095L123.298 152.904C124.226 152.614 124.744 151.629 124.455 150.704C124.166 149.779 123.179 149.264 122.251 149.554Z" fill="#F7B40D"/>
<path d="M125.907 47.2412L48.0514 71.5712C41.1271 73.735 37.2679 81.1025 39.4318 88.0268L55.9078 140.75C58.0716 147.674 65.4391 151.533 72.3634 149.37L150.219 125.04C157.144 122.876 161.003 115.508 158.839 108.584L142.363 55.8608C140.199 48.9365 132.832 45.0773 125.907 47.2412Z" stroke="#141414" stroke-width="2.01157" stroke-miterlimit="10"/>
<path opacity="0.2" d="M409 189.43C409 195.23 290.28 199.93 187 199.93C83.72 199.93 0 195.23 0 189.43C0 183.63 83.72 178.93 187 178.93C290.28 178.93 409 183.63 409 189.43Z" fill="#0E394F"/>
<path opacity="0.2" d="M519.19 189.43C519.19 191.78 500.19 193.69 483.66 193.69C467.13 193.69 453.73 191.78 453.73 189.43C453.73 187.08 467.13 185.17 483.66 185.17C500.19 185.17 519.19 187.08 519.19 189.43Z" fill="#0E394F"/>
<path d="M372.76 1H167.35C165.899 1.00194 164.495 1.51532 163.385 2.44989C162.275 3.38446 161.529 4.68042 161.28 6.11L137.44 162.73C137.289 163.614 137.332 164.52 137.567 165.386C137.802 166.251 138.224 167.055 138.802 167.74C139.38 168.426 140.101 168.977 140.914 169.356C141.727 169.734 142.613 169.93 143.51 169.93H356.77C358.194 169.92 359.571 169.417 360.666 168.505C361.76 167.593 362.504 166.329 362.77 164.93L387.44 18.77C387.846 16.6085 387.772 14.3842 387.223 12.2545C386.674 10.1249 385.663 8.14204 384.262 6.44648C382.862 4.75092 381.105 3.38412 379.117 2.4429C377.13 1.50169 374.959 1.00909 372.76 1Z" fill="#0E3964"/>
<path d="M372.76 1H167.35C165.899 1.00194 164.495 1.51532 163.385 2.44989C162.275 3.38446 161.529 4.68042 161.28 6.11L137.44 162.73C137.289 163.614 137.332 164.52 137.567 165.386C137.802 166.251 138.224 167.055 138.802 167.74C139.38 168.426 140.101 168.977 140.914 169.356C141.727 169.734 142.613 169.93 143.51 169.93H356.77C358.194 169.92 359.571 169.417 360.666 168.505C361.76 167.593 362.504 166.329 362.77 164.93L387.44 18.77C387.846 16.6085 387.772 14.3842 387.223 12.2545C386.674 10.1249 385.663 8.14204 384.262 6.44648C382.862 4.75092 381.105 3.38412 379.117 2.4429C377.13 1.50169 374.959 1.00909 372.76 1V1Z" stroke="#141414" stroke-width="2" stroke-miterlimit="10"/>
<path d="M373 1H158.76C156.536 0.998784 154.384 1.78416 152.684 3.21715C150.984 4.65014 149.845 6.63837 149.47 8.83L124.85 169.93H351L378.3 7.39C378.447 6.61091 378.42 5.80895 378.222 5.04132C378.024 4.27368 377.658 3.55926 377.152 2.94899C376.646 2.33873 376.011 1.84765 375.294 1.51076C374.576 1.17387 373.793 0.999475 373 1Z" fill="#2C6E9B"/>
<path d="M373 1H158.76C156.536 0.998784 154.384 1.78416 152.684 3.21715C150.984 4.65014 149.845 6.63837 149.47 8.83L124.85 169.93H351L378.3 7.39C378.447 6.61091 378.42 5.80895 378.222 5.04132C378.024 4.27368 377.658 3.55926 377.152 2.94899C376.646 2.33873 376.011 1.84765 375.294 1.51076C374.576 1.17387 373.793 0.999475 373 1V1Z" stroke="#141414" stroke-width="2" stroke-miterlimit="10"/>
<path d="M367.14 13H160.25L138.42 157.93H343.19L367.14 13Z" fill="#0E394F"/>
<path d="M367.73 13.22L366.6 19.22H159.8L160.83 13.22H367.73Z" fill="#062538"/>
<path d="M166.15 13L144.31 157.93H138.31L160.15 13H166.15Z" fill="#062538"/>
<path d="M189.67 29.07H178.55L177.13 33.28H189.12L189.67 29.07Z" fill="#4CF58C"/>
<path d="M205.67 29.07H193.55L192.13 33.28H204.12L205.67 29.07Z" fill="#4CF58C"/>
<path d="M219.67 29.07H208.55L208.13 33.28H218.12L219.67 29.07Z" fill="#4CF58C"/>
<path d="M229.17 29.07H225.05L223.63 33.28H228.62L229.17 29.07Z" fill="#4CF58C"/>
<path d="M175.17 29.07H171.05L169.63 33.28L174.21 33.42L175.17 29.07Z" fill="#4CF58C"/>
<path d="M187.67 38.07H176.55L175.13 42.28H187.12L187.67 38.07Z" fill="#4CF58C"/>
<path d="M202.67 38.07H191.55L190.13 42.28H202.12L202.67 38.07Z" fill="#4CF58C"/>
<path d="M217.67 38.07H206.55L206.13 42.28H217.12L217.67 38.07Z" fill="#4CF58C"/>
<path d="M226.17 38.07H222.05L220.63 42.28H225.62L226.17 38.07Z" fill="#4CF58C"/>
<path d="M173.17 38.07H169.05L167.63 42.28H172.46L173.17 38.07Z" fill="#4CF58C"/>
<path d="M27.57 168.93H255.85V189.93H35.29C33.4927 189.931 31.7127 189.578 30.0518 188.892C28.3909 188.205 26.8817 187.197 25.6103 185.927C24.3389 184.656 23.3304 183.148 22.6423 181.487C21.9542 179.827 21.6 178.047 21.6 176.25V174.9C21.6079 173.319 22.2394 171.805 23.3573 170.687C24.4751 169.569 25.9891 168.938 27.57 168.93Z" fill="#19517F"/>
<path opacity="0.3" d="M255.85 181.93V189.93H35.28C31.6526 189.927 28.1746 188.485 25.6097 185.92C23.0448 183.355 21.6026 179.877 21.6 176.25V174.9C21.5956 173.999 21.801 173.108 22.2 172.3C23.0723 175.088 24.8109 177.525 27.1632 179.257C29.5156 180.988 32.3589 181.925 35.28 181.93H255.85Z" fill="#0E3964"/>
<path opacity="0.3" d="M353.86 162.93V168.93H125.03L125.86 162.93H353.86Z" fill="#0E3964"/>
<path d="M90.85 168.93H171.85C171.85 171.847 170.691 174.645 168.628 176.708C166.565 178.771 163.767 179.93 160.85 179.93H101.85C100.405 179.93 98.975 179.645 97.6405 179.093C96.3059 178.54 95.0932 177.73 94.0718 176.708C93.0504 175.687 92.2401 174.474 91.6873 173.14C91.1345 171.805 90.85 170.375 90.85 168.93Z" fill="#0E3964"/>
<path d="M90.85 168.93H171.85C171.85 171.847 170.691 174.645 168.628 176.708C166.565 178.771 163.767 179.93 160.85 179.93H101.85C100.405 179.93 98.975 179.645 97.6405 179.093C96.3059 178.54 95.0932 177.73 94.0718 176.708C93.0504 175.687 92.2401 174.474 91.6873 173.14C91.1345 171.805 90.85 170.375 90.85 168.93Z" stroke="#141414" stroke-width="2" stroke-miterlimit="10"/>
<path d="M367.05 13L343.1 157.93H138.37L364.24 13H367.05Z" fill="#062538"/>
<path d="M375.181 68.0356L377.021 56.218C377.17 55.2575 376.513 54.3577 375.553 54.2082C374.592 54.0586 373.692 54.716 373.543 55.6764L371.703 67.494C371.553 68.4545 372.211 69.3543 373.171 69.5039C374.132 69.6534 375.031 68.996 375.181 68.0356Z" fill="#062C4C"/>
<path d="M378.642 45.7874L380.482 33.9698C380.632 33.0094 379.974 32.1095 379.014 31.96C378.053 31.8104 377.154 32.4678 377.004 33.4283L375.164 45.2459C375.015 46.2063 375.672 47.1061 376.632 47.2557C377.593 47.4052 378.493 46.7478 378.642 45.7874Z" fill="#062C4C"/>
<path d="M133.57 172.67H121.61C120.638 172.67 119.85 173.458 119.85 174.43C119.85 175.402 120.638 176.19 121.61 176.19H133.57C134.542 176.19 135.33 175.402 135.33 174.43C135.33 173.458 134.542 172.67 133.57 172.67Z" fill="#141414"/>
<path d="M62.39 168.99H38.08C36.6109 168.99 35.42 170.181 35.42 171.65C35.42 173.119 36.6109 174.31 38.08 174.31H62.39C63.8591 174.31 65.05 173.119 65.05 171.65C65.05 170.181 63.8591 168.99 62.39 168.99Z" fill="#2C6E9B"/>
<path d="M69.99 174.31C71.4591 174.31 72.65 173.119 72.65 171.65C72.65 170.181 71.4591 168.99 69.99 168.99C68.5209 168.99 67.33 170.181 67.33 171.65C67.33 173.119 68.5209 174.31 69.99 174.31Z" fill="#2C6E9B"/>
<path d="M139.678 89.9722L135.925 113.991C135.698 115.442 136.691 116.803 138.143 117.03C139.594 117.256 140.955 116.263 141.181 114.812L144.934 90.7934C145.161 89.3419 144.168 87.9814 142.717 87.7547C141.265 87.5279 139.905 88.5207 139.678 89.9722Z" fill="#4D9AC4"/>
<path d="M143.47 85.53C144.939 85.53 146.13 84.3391 146.13 82.87C146.13 81.4009 144.939 80.21 143.47 80.21C142.001 80.21 140.81 81.4009 140.81 82.87C140.81 84.3391 142.001 85.53 143.47 85.53Z" fill="#4D9AC4"/>
<path d="M189.39 3.99H165.08C163.611 3.99 162.42 5.18092 162.42 6.65C162.42 8.11908 163.611 9.31 165.08 9.31H189.39C190.859 9.31 192.05 8.11908 192.05 6.65C192.05 5.18092 190.859 3.99 189.39 3.99Z" fill="#4D9AC4"/>
<path d="M196.99 9.31C198.459 9.31 199.65 8.11908 199.65 6.65C199.65 5.18092 198.459 3.99 196.99 3.99C195.521 3.99 194.33 5.18092 194.33 6.65C194.33 8.11908 195.521 9.31 196.99 9.31Z" fill="#4D9AC4"/>
<path d="M245.85 9.93C247.507 9.93 248.85 8.58685 248.85 6.93C248.85 5.27315 247.507 3.93 245.85 3.93C244.193 3.93 242.85 5.27315 242.85 6.93C242.85 8.58685 244.193 9.93 245.85 9.93Z" fill="#F95D5D"/>
<path d="M94.57 163.93H71.57V168.93H94.57V163.93Z" fill="#033156"/>
<path d="M59.85 163.93H36.85V168.93H59.85V163.93Z" fill="#033156"/>
<path d="M129.28 163.93H106.28V168.93H129.28V163.93Z" fill="#033156"/>
<path d="M164 163.93H141V168.93H164V163.93Z" fill="#033156"/>
<path d="M198.71 163.93H175.71V168.93H198.71V163.93Z" fill="#033156"/>
<path d="M233.43 163.93H210.43V168.93H233.43V163.93Z" fill="#033156"/>
<path d="M268.14 163.93H245.14V168.93H268.14V163.93Z" fill="#033156"/>
<path d="M337.85 163.93H314.85V168.93H337.85V163.93Z" fill="#033156"/>
<path d="M302.99 164.08H279.99V169.08H302.99V164.08Z" fill="#033156"/>
<path d="M94.57 163.93H71.57V168.93H94.57V163.93Z" stroke="#141414" stroke-width="2" stroke-miterlimit="10"/>
<path d="M59.85 163.93H36.85V168.93H59.85V163.93Z" stroke="#141414" stroke-width="2" stroke-miterlimit="10"/>
<path d="M129.28 163.93H106.28V168.93H129.28V163.93Z" stroke="#141414" stroke-width="2" stroke-miterlimit="10"/>
<path d="M164 163.93H141V168.93H164V163.93Z" stroke="#141414" stroke-width="2" stroke-miterlimit="10"/>
<path d="M198.71 163.93H175.71V168.93H198.71V163.93Z" stroke="#141414" stroke-width="2" stroke-miterlimit="10"/>
<path d="M233.43 163.93H210.43V168.93H233.43V163.93Z" stroke="#141414" stroke-width="2" stroke-miterlimit="10"/>
<path d="M268.14 163.93H245.14V168.93H268.14V163.93Z" stroke="#141414" stroke-width="2" stroke-miterlimit="10"/>
<path d="M337.85 163.93H314.85V168.93H337.85V163.93Z" stroke="#141414" stroke-width="2" stroke-miterlimit="10"/>
<path d="M302.99 164.08H279.99V169.08H302.99V164.08Z" stroke="#141414" stroke-width="2" stroke-miterlimit="10"/>
<path d="M367.04 13H160.15L138.32 157.93H343.09L367.04 13Z" stroke="#141414" stroke-width="2" stroke-miterlimit="10"/>
<path d="M338.69 29.57H252.69C250.646 29.5667 248.67 30.2981 247.12 31.6309C245.571 32.9636 244.552 34.8088 244.25 36.83L235.9 92.23C235.717 93.4443 235.799 94.6837 236.139 95.8636C236.479 97.0435 237.07 98.136 237.872 99.0664C238.673 99.9969 239.666 100.743 240.782 101.255C241.898 101.766 243.112 102.031 244.34 102.03H329.57C331.594 102.033 333.553 101.317 335.097 100.009C336.641 98.7011 337.67 96.8867 338 94.89L347.16 39.49C347.362 38.2643 347.295 37.0091 346.962 35.8122C346.628 34.6154 346.038 33.5058 345.231 32.561C344.424 31.6162 343.421 30.859 342.291 30.3423C341.161 29.8257 339.932 29.5621 338.69 29.57Z" fill="white"/>
<path d="M347 39.5L337.85 94.89C337.519 96.8841 336.491 98.6961 334.949 100.003C333.407 101.311 331.451 102.029 329.43 102.03H244.21C242.261 102.03 240.37 101.363 238.851 100.141C237.333 98.9187 236.277 97.2142 235.86 95.31L338.32 29.57H338.59C339.828 29.5723 341.05 29.8437 342.173 30.3653C343.295 30.8869 344.291 31.6462 345.091 32.5907C345.891 33.5352 346.476 34.6423 346.805 35.8353C347.135 37.0284 347.201 38.2788 347 39.5Z" fill="#F4F3F2"/>
<path d="M27.57 168.93H255.85V189.93H35.29C33.4927 189.931 31.7127 189.578 30.0518 188.892C28.3909 188.205 26.8817 187.197 25.6103 185.927C24.3389 184.656 23.3304 183.148 22.6423 181.487C21.9542 179.827 21.6 178.047 21.6 176.25V174.9C21.6079 173.319 22.2394 171.805 23.3573 170.687C24.4751 169.569 25.9891 168.938 27.57 168.93Z" stroke="#141414" stroke-width="2" stroke-miterlimit="10"/>
<path d="M361.35 168.93H245.35C239.551 168.93 234.85 173.631 234.85 179.43C234.85 185.229 239.551 189.93 245.35 189.93H361.35C367.149 189.93 371.85 185.229 371.85 179.43C371.85 173.631 367.149 168.93 361.35 168.93Z" fill="#0E3964"/>
<path d="M358.09 177.67H346.13C345.158 177.67 344.37 178.458 344.37 179.43C344.37 180.402 345.158 181.19 346.13 181.19H358.09C359.062 181.19 359.85 180.402 359.85 179.43C359.85 178.458 359.062 177.67 358.09 177.67Z" fill="#141414"/>
<path d="M335.57 177.67H323.61C322.638 177.67 321.85 178.458 321.85 179.43C321.85 180.402 322.638 181.19 323.61 181.19H335.57C336.542 181.19 337.33 180.402 337.33 179.43C337.33 178.458 336.542 177.67 335.57 177.67Z" fill="#141414"/>
<path d="M361.35 168.93H245.35C239.551 168.93 234.85 173.631 234.85 179.43C234.85 185.229 239.551 189.93 245.35 189.93H361.35C367.149 189.93 371.85 185.229 371.85 179.43C371.85 173.631 367.149 168.93 361.35 168.93Z" stroke="#141414" stroke-width="2" stroke-miterlimit="10"/>
<path d="M65.39 59.19L66.26 54.76" stroke="white" stroke-linecap="round" stroke-linejoin="round"/>
<path d="M66.54 53.72C66.8935 53.72 67.18 53.4335 67.18 53.08C67.18 52.7265 66.8935 52.44 66.54 52.44C66.1866 52.44 65.9 52.7265 65.9 53.08C65.9 53.4335 66.1866 53.72 66.54 53.72Z" fill="white"/>
<path d="M108 60.05L125.26 54.69C127.237 54.0984 129.368 54.3092 131.191 55.2768C133.014 56.2444 134.382 57.8909 135 59.86L139.2 73.42" stroke="#141414" stroke-width="2" stroke-linecap="round" stroke-linejoin="round"/>
<path d="M89.42 65.8L100.85 62.25" stroke="#141414" stroke-width="2" stroke-linecap="round" stroke-linejoin="round"/>
<path d="M131.35 123.07L71.35 141.68C69.3622 142.296 67.2112 142.097 65.3698 141.128C63.5283 140.158 62.1472 138.497 61.53 136.51L46.3 87.39C45.6841 85.4022 45.8827 83.2512 46.8522 81.4098C47.8216 79.5684 49.4826 78.1872 51.47 77.57L83.36 67.68" stroke="#141414" stroke-width="2" stroke-linecap="round" stroke-linejoin="round"/>
<path d="M265.39 76.4H254.27L252.85 80.62H264.84L265.39 76.4Z" fill="#FBD766"/>
<path d="M281.39 76.4H269.27L267.86 80.62H279.84L281.39 76.4Z" fill="#FBD766"/>
<path d="M295.39 76.4H284.27L283.86 80.62H293.84L295.39 76.4Z" fill="#FBD766"/>
<path d="M304.89 76.4H300.77L299.36 80.62H304.34L304.89 76.4Z" fill="#FBD766"/>
<path d="M250.89 76.4H246.77L245.35 80.62L249.93 80.75L250.89 76.4Z" fill="#FBD766"/>
<path d="M263.39 85.4H252.27L250.85 89.62H262.84L263.39 85.4Z" fill="#FBD766"/>
<path d="M278.39 85.4H267.27L265.86 89.62H277.84L278.39 85.4Z" fill="#FBD766"/>
<path d="M293.39 85.4H282.27L281.86 89.62H292.84L293.39 85.4Z" fill="#FBD766"/>
<path d="M301.89 85.4H297.77L296.36 89.62H301.34L301.89 85.4Z" fill="#FBD766"/>
<path d="M248.89 85.4H244.77L243.35 89.62H248.18L248.89 85.4Z" fill="#FBD766"/>
<path d="M338.69 29.57H252.69C250.646 29.5667 248.67 30.2981 247.12 31.6309C245.571 32.9636 244.552 34.8088 244.25 36.83L235.9 92.23C235.717 93.4443 235.799 94.6837 236.139 95.8636C236.479 97.0435 237.07 98.136 237.872 99.0664C238.673 99.9969 239.666 100.743 240.782 101.255C241.898 101.766 243.112 102.031 244.34 102.03H329.57C331.594 102.033 333.553 101.317 335.097 100.009C336.641 98.7011 337.67 96.8867 338 94.89L347.16 39.49C347.362 38.2643 347.295 37.0091 346.962 35.8122C346.628 34.6154 346.038 33.5058 345.231 32.561C344.424 31.6162 343.421 30.859 342.291 30.3423C341.161 29.8257 339.932 29.5621 338.69 29.57V29.57Z" stroke="#141414" stroke-width="1.3" stroke-miterlimit="10"/>
</g>
<defs>
<clipPath id="clip0_49_31">
<rect width="519.19" height="199.93" fill="white"/>
</clipPath>
</defs>
</svg>
